<?xml version="1.0" encoding="UTF-8" standalone="no"?>
<!DOCTYPE svg PUBLIC "-//W3C//DTD SVG 1.1//EN"
 "http://www.w3.org/Graphics/SVG/1.1/DTD/svg11.dtd">
<!-- Generated by graphviz version 2.43.0 (0)
 -->
<!-- Title: %3 Pages: 1 -->
<svg width="155pt" height="599pt"
 viewBox="0.00 0.00 155.00 598.94" xmlns="http://www.w3.org/2000/svg" xmlns:xlink="http://www.w3.org/1999/xlink">
<g id="graph0" class="graph" transform="scale(1 1) rotate(0) translate(4 594.94)">
<title>%3</title>
<polygon fill="white" stroke="transparent" points="-4,4 -4,-594.94 151,-594.94 151,4 -4,4"/>
<!-- 5746886410258685214 -->
<g id="node1" class="node">
<title>5746886410258685214</title>
<polygon fill="none" stroke="black" points="110.5,-317.47 36.5,-317.47 36.5,-281.47 110.5,-281.47 110.5,-317.47"/>
<text text-anchor="middle" x="73.5" y="-296.37" font-family="Times,serif" font-size="12.00">T_1_Busy</text>
</g>
<!-- &#45;6067262562779446338 -->
<g id="node2" class="node">
<title>&#45;6067262562779446338</title>
<polygon fill="none" stroke="black" points="111.5,-232.47 35.5,-232.47 35.5,-196.47 111.5,-196.47 111.5,-232.47"/>
<text text-anchor="middle" x="73.5" y="-211.37" font-family="Times,serif" font-size="12.00">T_1_Done</text>
</g>
<!-- 5746886410258685214&#45;&gt;&#45;6067262562779446338 -->
<g id="edge1" class="edge">
<title>5746886410258685214&#45;&gt;&#45;6067262562779446338</title>
<path fill="none" stroke="black" stroke-width="1.26" d="M73.5,-281.27C73.5,-270.14 73.5,-255.41 73.5,-242.71"/>
<polygon fill="black" stroke="black" stroke-width="1.26" points="77,-242.64 73.5,-232.64 70,-242.64 77,-242.64"/>
<text text-anchor="middle" x="80.5" y="-253.87" font-family="Times,serif" font-size="12.00">4s</text>
</g>
<!-- &#45;7595364334476485833 -->
<g id="node5" class="node">
<title>&#45;7595364334476485833</title>
<polygon fill="none" stroke="black" points="147,-147.47 0,-147.47 0,-111.47 147,-111.47 147,-147.47"/>
<text text-anchor="middle" x="73.5" y="-126.37" font-family="Times,serif" font-size="12.00">simulation_successful</text>
</g>
<!-- &#45;6067262562779446338&#45;&gt;&#45;7595364334476485833 -->
<g id="edge2" class="edge">
<title>&#45;6067262562779446338&#45;&gt;&#45;7595364334476485833</title>
<path fill="none" stroke="black" d="M73.5,-196.27C73.5,-185.14 73.5,-170.41 73.5,-157.71"/>
<polygon fill="black" stroke="black" points="77,-157.64 73.5,-147.64 70,-157.64 77,-157.64"/>
<text text-anchor="middle" x="84.5" y="-168.87" font-family="Times,serif" font-size="12.00">0ns</text>
</g>
<!-- 6191698931724105966 -->
<g id="node3" class="node">
<title>6191698931724105966</title>
<polygon fill="none" stroke="black" points="114,-487.47 33,-487.47 33,-451.47 114,-451.47 114,-487.47"/>
<text text-anchor="middle" x="73.5" y="-466.37" font-family="Times,serif" font-size="12.00">T_49_Busy</text>
</g>
<!-- &#45;6747082313500465717 -->
<g id="node4" class="node">
<title>&#45;6747082313500465717</title>
<polygon fill="none" stroke="black" points="115,-402.47 32,-402.47 32,-366.47 115,-366.47 115,-402.47"/>
<text text-anchor="middle" x="73.5" y="-381.37" font-family="Times,serif" font-size="12.00">T_49_Done</text>
</g>
<!-- 6191698931724105966&#45;&gt;&#45;6747082313500465717 -->
<g id="edge3" class="edge">
<title>6191698931724105966&#45;&gt;&#45;6747082313500465717</title>
<path fill="none" stroke="black" stroke-width="1.26" d="M73.5,-451.27C73.5,-440.14 73.5,-425.41 73.5,-412.71"/>
<polygon fill="black" stroke="black" stroke-width="1.26" points="77,-412.64 73.5,-402.64 70,-412.64 77,-412.64"/>
<text text-anchor="middle" x="80.5" y="-423.87" font-family="Times,serif" font-size="12.00">4s</text>
</g>
<!-- &#45;6747082313500465717&#45;&gt;5746886410258685214 -->
<g id="edge4" class="edge">
<title>&#45;6747082313500465717&#45;&gt;5746886410258685214</title>
<path fill="none" stroke="black" stroke-width="2.6" d="M73.5,-366.27C73.5,-355.14 73.5,-340.41 73.5,-327.71"/>
<polygon fill="black" stroke="black" stroke-width="2.6" points="77,-327.64 73.5,-317.64 70,-327.64 77,-327.64"/>
<text text-anchor="middle" x="84.5" y="-338.87" font-family="Times,serif" font-size="12.00">25s</text>
</g>
<!-- @@endnode -->
<g id="node7" class="node">
<title>@@endnode</title>
<ellipse fill="none" stroke="black" cx="73.5" cy="-37.23" rx="33.44" ry="33.44"/>
<ellipse fill="none" stroke="black" cx="73.5" cy="-37.23" rx="37.47" ry="37.47"/>
<text text-anchor="start" x="58" y="-29.13" font-family="Times,serif" font-size="32.00">■</text>
</g>
<!-- &#45;7595364334476485833&#45;&gt;@@endnode -->
<g id="edge6" class="edge">
<title>&#45;7595364334476485833&#45;&gt;@@endnode</title>
<path fill="none" stroke="black" d="M73.5,-111.07C73.5,-103.47 73.5,-94.16 73.5,-84.77"/>
<polygon fill="black" stroke="black" points="77,-84.63 73.5,-74.63 70,-84.63 77,-84.63"/>
</g>
<!-- @@startnode -->
<g id="node6" class="node">
<title>@@startnode</title>
<ellipse fill="none" stroke="black" cx="73.5" cy="-557.7" rx="33.47" ry="33.47"/>
<text text-anchor="start" x="58" y="-549" font-family="Times,serif" font-size="34.00">●</text>
</g>
<!-- @@startnode&#45;&gt;6191698931724105966 -->
<g id="edge5" class="edge">
<title>@@startnode&#45;&gt;6191698931724105966</title>
<path fill="none" stroke="black" d="M73.5,-524.1C73.5,-515.38 73.5,-506.05 73.5,-497.66"/>
<polygon fill="black" stroke="black" points="77,-497.64 73.5,-487.64 70,-497.64 77,-497.64"/>
</g>
</g>
</svg>
