<?xml version="1.0" encoding="UTF-8" standalone="no"?>
<!DOCTYPE svg PUBLIC "-//W3C//DTD SVG 1.1//EN"
 "http://www.w3.org/Graphics/SVG/1.1/DTD/svg11.dtd">
<!-- Generated by graphviz version 2.43.0 (0)
 -->
<!-- Title: %3 Pages: 1 -->
<svg width="252pt" height="599pt"
 viewBox="0.00 0.00 251.50 598.94" xmlns="http://www.w3.org/2000/svg" xmlns:xlink="http://www.w3.org/1999/xlink">
<g id="graph0" class="graph" transform="scale(1 1) rotate(0) translate(4 594.94)">
<title>%3</title>
<polygon fill="white" stroke="transparent" points="-4,4 -4,-594.94 247.5,-594.94 247.5,4 -4,4"/>
<!-- 5746886410258685214 -->
<g id="node1" class="node">
<title>5746886410258685214</title>
<polygon fill="none" stroke="black" points="110.5,-317.47 36.5,-317.47 36.5,-281.47 110.5,-281.47 110.5,-317.47"/>
<text text-anchor="middle" x="73.5" y="-296.37" font-family="Times,serif" font-size="12.00">T_1_Busy</text>
</g>
<!-- &#45;6067262562779446338 -->
<g id="node2" class="node">
<title>&#45;6067262562779446338</title>
<polygon fill="none" stroke="black" points="111.5,-232.47 35.5,-232.47 35.5,-196.47 111.5,-196.47 111.5,-232.47"/>
<text text-anchor="middle" x="73.5" y="-211.37" font-family="Times,serif" font-size="12.00">T_1_Done</text>
</g>
<!-- 5746886410258685214&#45;&gt;&#45;6067262562779446338 -->
<g id="edge1" class="edge">
<title>5746886410258685214&#45;&gt;&#45;6067262562779446338</title>
<path fill="none" stroke="black" stroke-width="1.17" d="M73.5,-281.27C73.5,-270.14 73.5,-255.41 73.5,-242.71"/>
<polygon fill="black" stroke="black" stroke-width="1.17" points="77,-242.64 73.5,-232.64 70,-242.64 77,-242.64"/>
<text text-anchor="middle" x="80.5" y="-253.87" font-family="Times,serif" font-size="12.00">4s</text>
</g>
<!-- &#45;7595364334476485833 -->
<g id="node6" class="node">
<title>&#45;7595364334476485833</title>
<polygon fill="none" stroke="black" points="147,-147.47 0,-147.47 0,-111.47 147,-111.47 147,-147.47"/>
<text text-anchor="middle" x="73.5" y="-126.37" font-family="Times,serif" font-size="12.00">simulation_successful</text>
</g>
<!-- &#45;6067262562779446338&#45;&gt;&#45;7595364334476485833 -->
<g id="edge2" class="edge">
<title>&#45;6067262562779446338&#45;&gt;&#45;7595364334476485833</title>
<path fill="none" stroke="black" d="M73.5,-196.27C73.5,-185.14 73.5,-170.41 73.5,-157.71"/>
<polygon fill="black" stroke="black" points="77,-157.64 73.5,-147.64 70,-157.64 77,-157.64"/>
<text text-anchor="middle" x="84.5" y="-168.87" font-family="Times,serif" font-size="12.00">0ns</text>
</g>
<!-- 6191698931724105966 -->
<g id="node3" class="node">
<title>6191698931724105966</title>
<polygon fill="none" stroke="black" points="184,-487.47 103,-487.47 103,-451.47 184,-451.47 184,-487.47"/>
<text text-anchor="middle" x="143.5" y="-466.37" font-family="Times,serif" font-size="12.00">T_49_Busy</text>
</g>
<!-- &#45;6747082313500465717 -->
<g id="node4" class="node">
<title>&#45;6747082313500465717</title>
<polygon fill="none" stroke="black" points="115,-402.47 32,-402.47 32,-366.47 115,-366.47 115,-402.47"/>
<text text-anchor="middle" x="73.5" y="-381.37" font-family="Times,serif" font-size="12.00">T_49_Done</text>
</g>
<!-- 6191698931724105966&#45;&gt;&#45;6747082313500465717 -->
<g id="edge3" class="edge">
<title>6191698931724105966&#45;&gt;&#45;6747082313500465717</title>
<path fill="none" stroke="black" stroke-width="1.17" d="M129,-451.27C119.05,-439.47 105.69,-423.63 94.57,-410.45"/>
<polygon fill="black" stroke="black" stroke-width="1.17" points="97.11,-408.03 87.99,-402.64 91.76,-412.54 97.11,-408.03"/>
<text text-anchor="middle" x="120.5" y="-423.87" font-family="Times,serif" font-size="12.00">4s</text>
</g>
<!-- &#45;2858528266227637720 -->
<g id="node5" class="node">
<title>&#45;2858528266227637720</title>
<polygon fill="none" stroke="black" points="243.5,-402.47 133.5,-402.47 133.5,-366.47 243.5,-366.47 243.5,-402.47"/>
<text text-anchor="middle" x="188.5" y="-381.37" font-family="Times,serif" font-size="12.00">T_49_rebooting</text>
</g>
<!-- 6191698931724105966&#45;&gt;&#45;2858528266227637720 -->
<g id="edge4" class="edge">
<title>6191698931724105966&#45;&gt;&#45;2858528266227637720</title>
<path fill="none" stroke="black" stroke-width="1.42" d="M140.41,-451.19C139.52,-441.65 139.84,-429.88 144.5,-420.47 146.4,-416.63 148.94,-413.08 151.85,-409.83"/>
<polygon fill="black" stroke="black" stroke-width="1.42" points="154.38,-412.26 159.17,-402.8 149.53,-407.21 154.38,-412.26"/>
<text text-anchor="middle" x="155.5" y="-423.87" font-family="Times,serif" font-size="12.00">10s</text>
</g>
<!-- &#45;6747082313500465717&#45;&gt;5746886410258685214 -->
<g id="edge5" class="edge">
<title>&#45;6747082313500465717&#45;&gt;5746886410258685214</title>
<path fill="none" stroke="black" stroke-width="2.13" d="M73.5,-366.27C73.5,-355.14 73.5,-340.41 73.5,-327.71"/>
<polygon fill="black" stroke="black" stroke-width="2.13" points="77,-327.64 73.5,-317.64 70,-327.64 77,-327.64"/>
<text text-anchor="middle" x="84.5" y="-338.87" font-family="Times,serif" font-size="12.00">27s</text>
</g>
<!-- &#45;2858528266227637720&#45;&gt;6191698931724105966 -->
<g id="edge6" class="edge">
<title>&#45;2858528266227637720&#45;&gt;6191698931724105966</title>
<path fill="none" stroke="black" stroke-width="2.6" d="M181.38,-402.66C177.34,-411.95 172.01,-423.52 166.5,-433.47 164.79,-436.55 162.91,-439.72 160.97,-442.84"/>
<polygon fill="black" stroke="black" stroke-width="2.6" points="157.97,-441.04 155.5,-451.34 163.85,-444.83 157.97,-441.04"/>
<text text-anchor="middle" x="184.5" y="-423.87" font-family="Times,serif" font-size="12.00">38s</text>
</g>
<!-- @@endnode -->
<g id="node8" class="node">
<title>@@endnode</title>
<ellipse fill="none" stroke="black" cx="73.5" cy="-37.23" rx="33.44" ry="33.44"/>
<ellipse fill="none" stroke="black" cx="73.5" cy="-37.23" rx="37.47" ry="37.47"/>
<text text-anchor="start" x="58" y="-29.13" font-family="Times,serif" font-size="32.00">■</text>
</g>
<!-- &#45;7595364334476485833&#45;&gt;@@endnode -->
<g id="edge8" class="edge">
<title>&#45;7595364334476485833&#45;&gt;@@endnode</title>
<path fill="none" stroke="black" d="M73.5,-111.07C73.5,-103.47 73.5,-94.16 73.5,-84.77"/>
<polygon fill="black" stroke="black" points="77,-84.63 73.5,-74.63 70,-84.63 77,-84.63"/>
</g>
<!-- @@startnode -->
<g id="node7" class="node">
<title>@@startnode</title>
<ellipse fill="none" stroke="black" cx="143.5" cy="-557.7" rx="33.47" ry="33.47"/>
<text text-anchor="start" x="128" y="-549" font-family="Times,serif" font-size="34.00">●</text>
</g>
<!-- @@startnode&#45;&gt;6191698931724105966 -->
<g id="edge7" class="edge">
<title>@@startnode&#45;&gt;6191698931724105966</title>
<path fill="none" stroke="black" d="M143.5,-524.1C143.5,-515.38 143.5,-506.05 143.5,-497.66"/>
<polygon fill="black" stroke="black" points="147,-497.64 143.5,-487.64 140,-497.64 147,-497.64"/>
</g>
</g>
</svg>
