<?xml version="1.0" encoding="UTF-8" standalone="no"?>
<!DOCTYPE svg PUBLIC "-//W3C//DTD SVG 1.1//EN"
 "http://www.w3.org/Graphics/SVG/1.1/DTD/svg11.dtd">
<!-- Generated by graphviz version 2.43.0 (0)
 -->
<!-- Title: %3 Pages: 1 -->
<svg width="241pt" height="599pt"
 viewBox="0.00 0.00 241.00 598.94" xmlns="http://www.w3.org/2000/svg" xmlns:xlink="http://www.w3.org/1999/xlink">
<g id="graph0" class="graph" transform="scale(1 1) rotate(0) translate(4 594.94)">
<title>%3</title>
<polygon fill="white" stroke="transparent" points="-4,4 -4,-594.94 237,-594.94 237,4 -4,4"/>
<!-- 5746886410258685214 -->
<g id="node1" class="node">
<title>5746886410258685214</title>
<polygon fill="none" stroke="black" points="173.5,-317.47 99.5,-317.47 99.5,-281.47 173.5,-281.47 173.5,-317.47"/>
<text text-anchor="middle" x="136.5" y="-296.37" font-family="Times,serif" font-size="12.00">T_1_Busy</text>
</g>
<!-- &#45;6067262562779446338 -->
<g id="node2" class="node">
<title>&#45;6067262562779446338</title>
<polygon fill="none" stroke="black" points="111.5,-232.47 35.5,-232.47 35.5,-196.47 111.5,-196.47 111.5,-232.47"/>
<text text-anchor="middle" x="73.5" y="-211.37" font-family="Times,serif" font-size="12.00">T_1_Done</text>
</g>
<!-- 5746886410258685214&#45;&gt;&#45;6067262562779446338 -->
<g id="edge1" class="edge">
<title>5746886410258685214&#45;&gt;&#45;6067262562779446338</title>
<path fill="none" stroke="black" stroke-width="1.12" d="M123.45,-281.27C114.58,-269.59 102.69,-253.93 92.75,-240.82"/>
<polygon fill="black" stroke="black" stroke-width="1.12" points="95.37,-238.49 86.54,-232.64 89.8,-242.73 95.37,-238.49"/>
<text text-anchor="middle" x="116.5" y="-253.87" font-family="Times,serif" font-size="12.00">4s</text>
</g>
<!-- &#45;523650604154215288 -->
<g id="node3" class="node">
<title>&#45;523650604154215288</title>
<polygon fill="none" stroke="black" points="233,-232.47 130,-232.47 130,-196.47 233,-196.47 233,-232.47"/>
<text text-anchor="middle" x="181.5" y="-211.37" font-family="Times,serif" font-size="12.00">T_1_rebooting</text>
</g>
<!-- 5746886410258685214&#45;&gt;&#45;523650604154215288 -->
<g id="edge2" class="edge">
<title>5746886410258685214&#45;&gt;&#45;523650604154215288</title>
<path fill="none" stroke="black" stroke-width="1.34" d="M133.41,-281.19C132.52,-271.65 132.84,-259.88 137.5,-250.47 139.4,-246.63 141.94,-243.08 144.85,-239.83"/>
<polygon fill="black" stroke="black" stroke-width="1.34" points="147.38,-242.26 152.17,-232.8 142.53,-237.21 147.38,-242.26"/>
<text text-anchor="middle" x="148.5" y="-253.87" font-family="Times,serif" font-size="12.00">11s</text>
</g>
<!-- &#45;7595364334476485833 -->
<g id="node6" class="node">
<title>&#45;7595364334476485833</title>
<polygon fill="none" stroke="black" points="147,-147.47 0,-147.47 0,-111.47 147,-111.47 147,-147.47"/>
<text text-anchor="middle" x="73.5" y="-126.37" font-family="Times,serif" font-size="12.00">simulation_successful</text>
</g>
<!-- &#45;6067262562779446338&#45;&gt;&#45;7595364334476485833 -->
<g id="edge3" class="edge">
<title>&#45;6067262562779446338&#45;&gt;&#45;7595364334476485833</title>
<path fill="none" stroke="black" d="M73.5,-196.27C73.5,-185.14 73.5,-170.41 73.5,-157.71"/>
<polygon fill="black" stroke="black" points="77,-157.64 73.5,-147.64 70,-157.64 77,-157.64"/>
<text text-anchor="middle" x="84.5" y="-168.87" font-family="Times,serif" font-size="12.00">0ns</text>
</g>
<!-- &#45;523650604154215288&#45;&gt;5746886410258685214 -->
<g id="edge4" class="edge">
<title>&#45;523650604154215288&#45;&gt;5746886410258685214</title>
<path fill="none" stroke="black" stroke-width="2.6" d="M174.38,-232.66C170.34,-241.95 165.01,-253.52 159.5,-263.47 157.79,-266.55 155.91,-269.72 153.97,-272.84"/>
<polygon fill="black" stroke="black" stroke-width="2.6" points="150.97,-271.04 148.5,-281.34 156.85,-274.83 150.97,-271.04"/>
<text text-anchor="middle" x="177.5" y="-253.87" font-family="Times,serif" font-size="12.00">53s</text>
</g>
<!-- 6191698931724105966 -->
<g id="node4" class="node">
<title>6191698931724105966</title>
<polygon fill="none" stroke="black" points="177,-487.47 96,-487.47 96,-451.47 177,-451.47 177,-487.47"/>
<text text-anchor="middle" x="136.5" y="-466.37" font-family="Times,serif" font-size="12.00">T_49_Busy</text>
</g>
<!-- &#45;6747082313500465717 -->
<g id="node5" class="node">
<title>&#45;6747082313500465717</title>
<polygon fill="none" stroke="black" points="178,-402.47 95,-402.47 95,-366.47 178,-366.47 178,-402.47"/>
<text text-anchor="middle" x="136.5" y="-381.37" font-family="Times,serif" font-size="12.00">T_49_Done</text>
</g>
<!-- 6191698931724105966&#45;&gt;&#45;6747082313500465717 -->
<g id="edge5" class="edge">
<title>6191698931724105966&#45;&gt;&#45;6747082313500465717</title>
<path fill="none" stroke="black" stroke-width="1.12" d="M136.5,-451.27C136.5,-440.14 136.5,-425.41 136.5,-412.71"/>
<polygon fill="black" stroke="black" stroke-width="1.12" points="140,-412.64 136.5,-402.64 133,-412.64 140,-412.64"/>
<text text-anchor="middle" x="143.5" y="-423.87" font-family="Times,serif" font-size="12.00">4s</text>
</g>
<!-- &#45;6747082313500465717&#45;&gt;5746886410258685214 -->
<g id="edge6" class="edge">
<title>&#45;6747082313500465717&#45;&gt;5746886410258685214</title>
<path fill="none" stroke="black" stroke-width="1.75" d="M136.5,-366.27C136.5,-355.14 136.5,-340.41 136.5,-327.71"/>
<polygon fill="black" stroke="black" stroke-width="1.75" points="140,-327.64 136.5,-317.64 133,-327.64 140,-327.64"/>
<text text-anchor="middle" x="147.5" y="-338.87" font-family="Times,serif" font-size="12.00">25s</text>
</g>
<!-- @@endnode -->
<g id="node8" class="node">
<title>@@endnode</title>
<ellipse fill="none" stroke="black" cx="73.5" cy="-37.23" rx="33.44" ry="33.44"/>
<ellipse fill="none" stroke="black" cx="73.5" cy="-37.23" rx="37.47" ry="37.47"/>
<text text-anchor="start" x="58" y="-29.13" font-family="Times,serif" font-size="32.00">■</text>
</g>
<!-- &#45;7595364334476485833&#45;&gt;@@endnode -->
<g id="edge8" class="edge">
<title>&#45;7595364334476485833&#45;&gt;@@endnode</title>
<path fill="none" stroke="black" d="M73.5,-111.07C73.5,-103.47 73.5,-94.16 73.5,-84.77"/>
<polygon fill="black" stroke="black" points="77,-84.63 73.5,-74.63 70,-84.63 77,-84.63"/>
</g>
<!-- @@startnode -->
<g id="node7" class="node">
<title>@@startnode</title>
<ellipse fill="none" stroke="black" cx="136.5" cy="-557.7" rx="33.47" ry="33.47"/>
<text text-anchor="start" x="121" y="-549" font-family="Times,serif" font-size="34.00">●</text>
</g>
<!-- @@startnode&#45;&gt;6191698931724105966 -->
<g id="edge7" class="edge">
<title>@@startnode&#45;&gt;6191698931724105966</title>
<path fill="none" stroke="black" d="M136.5,-524.1C136.5,-515.38 136.5,-506.05 136.5,-497.66"/>
<polygon fill="black" stroke="black" points="140,-497.64 136.5,-487.64 133,-497.64 140,-497.64"/>
</g>
</g>
</svg>
